# xmcd
#
# Track frame offsets:
#	150
#	16477
#	36000
#
# Disc length: 696 seconds
#
# Revision: 1
# Processed by: cddbd v1.5.1PL0 Copyright (c) Steve Scherf et al.
# Submitted via: CDex 1.50Beta5
#
DISCID=1a02b603
DTITLE=FIELD OF VIEW - めぐる季節を越えて
DYEAR=1900
DGENRE=Pop
TTITLE0=めぐる季節を越えて
TTITLE1=そばにいたかった-STAND ALONE-
TTITLE2=めぐる季節を越えて
EXTD=
EXTT0=
EXTT1=
EXTT2=
PLAYORDER=
